<svg width="416" height="631" viewBox="0 0 416 631" fill="none" xmlns="http://www.w3.org/2000/svg">
<rect y="599" width="402" height="122" rx="16" transform="rotate(-90 0 599)" fill="#46327F"/>
<rect x="147" y="599" width="452" height="122" rx="16" transform="rotate(-90 147 599)" fill="#481B6D"/>
<rect x="294" y="599" width="502" height="122" rx="16" transform="rotate(-90 294 599)" fill="#440154"/>
<path d="M159.621 55.148C161.958 53.7267 163.603 52.8681 164.98 51.8558C167.156 50.2504 169.165 48.5514 171.218 46.8763C172.266 46.0231 173.081 44.9325 174.313 44.3006C179.345 41.7147 184.373 39.0361 189.645 36.8131C198.857 32.9213 208.325 28.8948 217.977 29.7741C222.372 30.1722 226.247 31.4299 230.881 32.4067C239.622 23.3781 254.824 20.0113 266.39 12.4357C266.096 12.235 265.397 11.7435 264.595 11.1869C262.181 12.7608 259.968 13.7371 258.15 12.175C257.895 11.9557 257.237 11.7769 256.811 11.8859C250.012 13.6615 245.882 11.3661 241.033 10.1237C239.327 9.68594 237.164 9.72699 238.352 7.66015C239.595 5.48644 241.972 3.99627 244.927 3.77399C250.092 3.37891 255.145 3.35825 260.231 3.21626C261.138 3.19021 262.1 3.59957 262.836 3.33193C268.45 1.29336 272.32 2.89005 276.729 3.43843C278.282 3.63414 280.125 3.66666 281.826 3.30367C285.833 2.45411 289.82 1.19581 293.828 0.351224C296.861 -0.289818 299.394 0.0988621 299.234 2.42021C299.021 5.39568 301.109 8.09551 297.566 11.5289C297.031 12.0449 297.343 12.9808 297.564 13.6152C298.64 16.625 298.53 19.776 296.606 23.2779C296.076 24.2456 296.08 25.3451 296.332 26.2349C296.9 28.2637 297.279 30.1894 294.672 32.514C294.141 32.9897 294.69 33.8743 294.628 34.5863C294.459 36.6343 294.643 38.6806 293.846 40.7498C293.481 41.6957 290.399 43.6033 289.834 43.4874C287.936 43.0974 286.449 42.0941 285.133 41.1115C284.349 40.5268 284.255 39.5125 283.697 38.7637C281.656 36.015 280.096 33.2161 281.489 29.3715C282.158 27.5164 281.544 25.7022 281.505 23.8731C281.501 23.6974 281.374 23.4798 281.511 23.3457C285.219 19.5641 282.603 17.0788 281.082 13.9851C273.418 18.3062 265.774 22.7147 257.997 26.9684C253.856 29.2349 249.478 31.2539 245.045 33.4627C244.172 34.4619 242.569 35.8542 241.823 37.287C241.183 38.5237 241.205 39.8938 241.48 41.0465C242.228 44.2105 244.255 47.1353 243.88 50.4414C243.551 53.3721 242.093 56.4753 242.926 59.273C243.038 59.6617 242.384 60.3942 241.852 60.8649C240.387 62.1556 238.316 63.3165 237.351 64.6621C235.065 67.8419 230.857 69.8541 227.332 72.1749C225.287 73.5208 222.043 74.3431 219.387 74.781C217.813 75.0403 216.155 74.2548 214.844 73.6688C211.861 72.3403 209.69 70.6418 209.801 67.6062C209.902 64.8897 209.049 62.3587 208.857 59.69C208.786 58.7177 209.001 57.4845 209.812 56.5446C213.017 52.8037 213.157 48.5196 218.649 45.1385C219.875 44.3812 220.403 42.8662 220.792 41.7189C220.954 41.2552 220.026 40.7295 219.35 40.4408C217.804 39.7779 216.098 39.2573 214.475 38.6593C214.173 38.5441 213.993 38.1672 213.707 38.2072C209.108 38.801 204.39 38.931 199.922 40.2168C195.76 41.4169 191.706 43.6987 187.887 45.7911C182.81 48.5689 176.98 50.7461 173.277 54.736C172.002 56.1072 170.248 57.3452 168.75 58.6192C170.436 61.9345 172.701 65.2172 173.7 68.8893C174.199 70.714 172.375 73.2643 171.503 75.7623C174.566 76.19 173.936 77.6725 172.143 80.0186C170.494 82.1727 170.134 84.5721 169.308 86.8554C169.023 87.6587 169.459 88.5587 168.858 89.2295C165.501 93.0045 161.984 96.7335 158.376 100.437C157.897 100.929 156.647 101.18 155.764 101.552C153.608 102.454 151.469 103.383 149.299 104.245C148.057 104.737 146.75 105.278 145.488 105.516C143.336 105.919 130.641 102.851 130.205 101.625C129.543 99.7769 129.667 97.6724 129.181 95.7544C128.06 91.3324 131.077 86.3486 133.902 82.148C137.885 76.2278 144.899 70.691 150.708 65.0246C151.297 64.452 152.499 64.0845 153.595 63.5363C153.251 61.3109 150.517 61.1885 147.501 61.3923C144.841 61.5718 142.143 61.6418 139.46 62.1608C136.913 62.6562 134.156 63.4156 131.841 64.525C126.51 67.0835 121.257 69.798 116.263 72.7143C114.282 73.8728 113.315 76.5465 111.491 77.116C105.826 78.8898 104.344 82.6589 101.694 85.3184C99.0981 87.9214 95.081 90.4784 93.8605 93.1813C91.885 97.5631 87.2534 101.459 85.3381 105.777C84.9777 106.599 83.481 107.414 82.0979 108.08C82.2603 104.353 80.313 100.826 86.5866 97.0403C84.1084 94.8853 86.3695 92.0124 88.4277 89.4008C91.7967 85.1183 95.6501 80.9287 99.4299 76.736C101.423 74.5278 103.182 71.944 105.932 70.3187C113.103 66.0957 120.875 62.4246 128.183 58.3161C134.416 54.8154 140.899 54.6221 147.118 53.7979C150.938 53.2871 154.489 54.5255 158.158 54.9776C158.878 55.0694 159.603 55.1485 159.64 55.1526L159.621 55.148ZM159.034 66.4405C157.076 68.4821 155.518 69.9811 154.169 71.5375C151.03 75.1512 148.517 79.0098 144.789 82.3777C139.172 87.4541 141.574 91.5818 140.971 96.0812C140.947 96.2827 141.336 96.4684 141.626 96.5764C145.811 98.1122 151.824 96.018 154.135 92.1823C156.138 88.8591 158.001 85.527 159.947 82.2003C160.524 81.2113 161.642 80.158 161.724 79.2621C161.92 76.9122 161.679 74.6414 161.609 72.3361C162.111 72.3733 162.614 72.4155 163.125 72.4499L166.262 69.4287C165.973 69.3258 165.678 69.2305 165.39 69.1275C161.439 71.0928 159.154 70.3613 159.046 66.4477L159.034 66.4405ZM222.154 65.1342C226.508 64.1576 228.473 62.1635 228.945 59.2842C229.256 57.4159 230.647 55.3865 230.724 53.5794C230.796 51.8629 229.782 50.3477 229.155 48.466C228.433 48.9944 227.243 49.6127 226.614 50.3646C222.356 55.4635 220.515 60.4369 222.146 65.1369L222.154 65.1342Z" fill="#440154"/>
</svg>
