<svg width="59" height="78" viewBox="0 0 59 78" fill="none" xmlns="http://www.w3.org/2000/svg">
<path d="M31.1658 13.5723H26.3737V38.4636H31.1658V13.5723Z" fill="#87B272"/>
<path d="M43.3294 15.1337C39.8321 19.4083 33.8478 21.8975 26.9742 22.4826H26.9671C24.7185 17.4104 25.0708 12.1478 28.5716 7.87036C32.0689 3.59294 38.0567 1.10376 44.9339 0.521484C47.1825 5.59643 46.8303 10.8563 43.3294 15.1337Z" fill="#87B272"/>
<path opacity="0.1" d="M43.3293 15.1339C39.832 19.4085 33.8478 21.8977 26.9741 22.4827H26.9706L44.9339 0.524414C47.1824 5.59936 46.8302 10.8592 43.3293 15.1366V15.1339Z" fill="#526B45"/>
<path d="M26.9957 7.91162C30.4539 12.2056 30.7599 17.4654 28.4651 22.5266V22.5321C21.5914 21.9112 15.6285 19.3889 12.1703 15.0922C8.71217 10.7954 8.4062 5.53283 10.701 0.47168C17.5711 1.09259 23.534 3.61489 26.9921 7.91162H26.9957Z" fill="#87B272"/>
<path opacity="0.1" d="M26.9956 7.91179C30.4538 12.2058 30.7598 17.4656 28.465 22.5268H28.4614L10.7045 0.474609C17.5746 1.09552 23.5375 3.61782 26.9956 7.91455V7.91179Z" fill="#526B45"/>
<path d="M5.54565 41.0938L5.68085 42.9482L8.04323 75.876C8.11794 76.9357 9.23865 77.7664 10.5942 77.7664H48.6698C50.0253 77.7664 51.146 76.9385 51.2207 75.876L53.5831 42.9482L53.7183 41.0938H5.54565ZM14.1057 51.0588C15.8028 51.0588 15.8028 53.1202 14.1057 53.1202C12.4087 53.1202 12.4122 51.0588 14.1057 51.0588ZM15.5217 58.0737C15.4292 58.1123 15.3296 58.1399 15.2193 58.1593C15.1802 58.1675 15.1375 58.1703 15.0948 58.1731C15.0379 58.1813 14.9774 58.1841 14.9169 58.1841C14.8066 58.1841 14.7034 58.1758 14.6074 58.1593C13.7926 58.0213 13.4973 57.3424 13.7108 56.807C13.8602 56.429 14.2623 56.1254 14.9133 56.1254C15.1197 56.1254 15.3047 56.1558 15.4612 56.211C16.4076 56.5394 16.4254 57.715 15.5182 58.0765L15.5217 58.0737ZM27.9989 65.7703C27.974 65.7703 27.9456 65.7731 27.9207 65.7731C27.8958 65.7731 27.8744 65.7731 27.8531 65.7731C26.7252 65.7731 26.3481 64.8569 26.7252 64.247C26.9138 63.9434 27.2874 63.7144 27.8531 63.7144C27.878 63.7144 27.8993 63.7144 27.9207 63.7144C28.2658 63.7254 28.5397 63.8248 28.7354 63.9765C28.867 64.0759 28.9667 64.2001 29.0307 64.3325C29.3118 64.912 28.9667 65.693 28.0025 65.7675L27.9989 65.7703Z" fill="#ED976B"/>
<path d="M58.7206 34.087V40.0615C58.7206 40.63 58.13 41.0909 57.4042 41.0909H1.33323C0.607441 41.0909 0.0168457 40.63 0.0168457 40.0615V34.087C0.0168457 33.5185 0.607441 33.0576 1.33323 33.0576H57.4042C58.13 33.0576 58.7206 33.5185 58.7206 34.087Z" fill="#ED976B"/>
<path d="M53.7183 41.0938L53.5831 42.9455H5.68085L5.54565 41.0938H53.7183Z" fill="#C16E49"/>
<path opacity="0.1" d="M58.7206 34.087V40.0615C58.7206 40.63 58.13 41.0909 57.4042 41.0909H53.7183L53.5831 42.9453L51.2208 75.8732C51.1461 76.9328 50.0253 77.7635 48.6698 77.7635H29.7637V33.0576H57.4042C58.13 33.0576 58.7206 33.5185 58.7206 34.087Z" fill="#ED976B"/>
<path d="M14.5113 52.4914C15.0201 52.4914 15.0236 51.876 14.5113 51.876C13.999 51.876 13.999 52.4914 14.5113 52.4914Z" fill="#ED976B"/>
<path d="M13.3408 51.3922V51.9028C13.3408 51.9828 13.3835 52.0656 13.4582 52.1208C13.5329 52.176 13.6397 52.2146 13.7393 52.2118C13.8389 52.2091 13.9492 52.1815 14.0204 52.1208C14.0915 52.06 14.1378 51.9855 14.1378 51.9028V51.3922C14.1378 51.3122 14.0951 51.2294 14.0204 51.1742C13.9456 51.119 13.8389 51.0804 13.7393 51.0831C13.6397 51.0859 13.5294 51.1135 13.4582 51.1742C13.3871 51.2349 13.3408 51.3094 13.3408 51.3922Z" fill="#ED976B"/>
<path d="M13.6077 51.1688C13.0029 51.1191 12.5973 51.6103 12.6222 52.0298C12.6471 52.4492 12.8819 52.9129 13.3373 53.153C13.7571 53.3737 14.3513 53.3572 14.7782 53.1585C15.2051 52.9598 15.4969 52.5983 15.5752 52.2202C15.657 51.8201 15.5431 51.3758 15.1411 51.0915C14.764 50.8238 14.1627 50.6996 13.6966 50.9094C13.1914 51.1384 13.1808 51.6904 13.2377 52.085C13.2697 52.2975 13.3337 52.5265 13.5614 52.67C13.8354 52.8439 14.2196 52.8687 14.49 52.67C14.7106 52.51 14.8351 52.2423 14.8992 52.0187C14.9348 51.9001 14.9561 51.7759 14.9597 51.6517C14.9632 51.5634 14.9703 51.4613 14.9063 51.384C14.8422 51.3068 14.7391 51.2488 14.6252 51.2212C14.3228 51.1439 13.9848 51.2764 13.8354 51.4861C13.6504 51.7455 13.7927 52.0353 13.9635 52.2726C14.0666 52.4134 14.3264 52.4713 14.5078 52.383C14.6893 52.2947 14.7604 52.1126 14.6501 51.9608C14.6288 51.9332 14.611 51.9056 14.5896 51.878C14.5896 51.878 14.5434 51.7925 14.5647 51.8339C14.5647 51.8311 14.5327 51.7373 14.5434 51.7952C14.5398 51.7731 14.5576 51.6986 14.5434 51.7621L14.5256 51.7952C14.5469 51.7676 14.5434 51.7704 14.5114 51.8035C14.579 51.7731 14.4402 51.8256 14.5185 51.798L14.4758 51.8118C14.5114 51.8035 14.5114 51.8063 14.4758 51.8118C14.4473 51.8173 14.4224 51.8173 14.394 51.8118C14.3406 51.7925 14.3335 51.7925 14.3691 51.8118L14.1734 51.5469C14.1734 51.6103 14.1734 51.6738 14.1663 51.7373C14.1591 51.8366 14.1841 51.6848 14.1591 51.7814C14.152 51.8118 14.1449 51.8449 14.1342 51.8752C14.0916 52.0132 14.0595 52.0822 13.9813 52.1871L13.9635 52.2119C13.9386 52.2423 13.9386 52.245 13.9635 52.2202L13.9386 52.2395C13.9706 52.2119 14.0062 52.2009 14.0453 52.2009H14.0666C14.0204 52.2009 14.024 52.2009 14.0773 52.2009L14.1093 52.2147C14.0702 52.1954 14.0702 52.1981 14.1093 52.2202L14.0844 52.2009C14.1093 52.2285 14.1093 52.2285 14.0844 52.1981C14.0346 52.1291 14.0916 52.2478 14.0702 52.1705C14.0631 52.1429 14.0524 52.1153 14.0453 52.0877C14.024 52.0187 14.0453 52.1402 14.0382 52.0519C14.024 51.9139 14.0168 51.7759 14.0346 51.6352C14.0346 51.6158 14.0382 51.5938 14.0417 51.5745C14.0311 51.649 14.0453 51.5634 14.0489 51.5524C14.056 51.5275 14.0666 51.5027 14.0773 51.4751C14.0916 51.442 14.0916 51.442 14.0773 51.4751C14.088 51.4613 14.0987 51.4447 14.1093 51.4309C14.0524 51.4972 14.1591 51.4061 14.0809 51.4503C14.0987 51.4392 14.12 51.4309 14.1414 51.4227C14.0631 51.453 14.1663 51.4227 14.1769 51.4171C14.2694 51.3923 14.1058 51.4116 14.2018 51.4144C14.2339 51.4144 14.2694 51.4144 14.3015 51.4144C14.4046 51.4144 14.2267 51.3978 14.3264 51.4171C14.3477 51.4227 14.3691 51.4254 14.3904 51.4309C14.4118 51.4365 14.4331 51.442 14.4544 51.4475C14.4118 51.4337 14.4118 51.4337 14.4544 51.4475C14.4829 51.4613 14.5149 51.4723 14.5434 51.4861C14.5576 51.4917 14.6359 51.5468 14.5719 51.4999C14.6145 51.5303 14.6537 51.5607 14.6893 51.5938C14.6323 51.5413 14.6999 51.6103 14.7071 51.6186C14.7248 51.6434 14.7426 51.6683 14.7604 51.6931C14.8102 51.7676 14.7497 51.6434 14.7746 51.7262C14.7853 51.7621 14.7996 51.8007 14.8138 51.8366C14.8422 51.9222 14.8138 51.8035 14.8173 51.8532C14.8173 51.878 14.8245 51.9001 14.8245 51.9249C14.8245 51.9525 14.8245 51.9829 14.8245 52.0105C14.8245 52.016 14.8138 52.1126 14.8245 52.0436C14.8138 52.0988 14.796 52.1567 14.7746 52.2119C14.7675 52.2285 14.7604 52.245 14.7533 52.2616C14.7355 52.2947 14.7355 52.2947 14.7533 52.2616C14.7426 52.2782 14.7355 52.2947 14.7248 52.3113C14.6928 52.3609 14.6572 52.4051 14.6181 52.4492C14.5612 52.5182 14.6679 52.4106 14.5968 52.4713C14.5825 52.4851 14.5647 52.4989 14.5505 52.51C14.5256 52.5293 14.5007 52.5458 14.4758 52.5652C14.4011 52.6231 14.5363 52.5403 14.4473 52.5817C14.4189 52.5955 14.3904 52.6121 14.3619 52.6231C14.3406 52.6314 14.3228 52.6397 14.3015 52.6479C14.3442 52.6341 14.3442 52.6341 14.3015 52.6479C14.2445 52.6617 14.1912 52.6728 14.1342 52.6811C14.2267 52.6673 14.12 52.6811 14.1022 52.6811C14.0666 52.6811 14.0346 52.6811 13.999 52.6811C13.8923 52.6811 14.0702 52.6976 13.9706 52.6783C13.9492 52.6728 13.9279 52.67 13.903 52.6645C13.8888 52.6617 13.7891 52.6286 13.871 52.659C13.8283 52.6424 13.7927 52.6259 13.7536 52.6065C13.8247 52.6424 13.7358 52.5928 13.7251 52.5845C13.7073 52.5707 13.6895 52.5569 13.6753 52.5431C13.6966 52.5679 13.6966 52.5652 13.6682 52.5376C13.6255 52.4879 13.5899 52.4382 13.5579 52.3858C13.5081 52.303 13.5757 52.4382 13.5401 52.3499C13.5259 52.3113 13.5045 52.2754 13.4903 52.2368C13.4654 52.1733 13.444 52.1098 13.4334 52.0463C13.444 52.1043 13.4334 51.9994 13.4334 51.9994C13.4334 51.9774 13.4334 51.9553 13.4334 51.936C13.4369 51.8973 13.4369 51.8946 13.4334 51.9222C13.4405 51.8918 13.4511 51.8642 13.4654 51.8366C13.4369 51.9001 13.4761 51.8311 13.4832 51.8201C13.5294 51.7593 13.4334 51.8476 13.5045 51.8035C13.5187 51.7925 13.5365 51.7787 13.5543 51.7704C13.5187 51.7925 13.5152 51.7952 13.5543 51.7759L13.5828 51.7649C13.5365 51.7787 13.533 51.7814 13.5757 51.7704C13.6219 51.7621 13.6184 51.7649 13.565 51.7704C13.5863 51.7704 13.6077 51.7704 13.629 51.7731C13.8354 51.7897 14.0346 51.6186 14.024 51.4668C14.0133 51.2847 13.8496 51.1771 13.629 51.1605L13.6077 51.1688Z" fill="#ED976B"/>
<path d="M14.8921 57.3371C15.0949 57.5247 15.3297 57.682 15.5858 57.8228C15.778 57.9276 16.1302 57.8283 16.1693 57.6379C16.244 57.2488 16.3152 56.8265 16.1337 56.4485C15.9309 56.029 15.4755 55.7586 14.9027 55.7199C14.3299 55.6813 13.8318 55.9186 13.5472 56.2774C13.2199 56.6886 13.2804 57.1687 13.5188 57.5937C13.7393 57.9883 14.12 58.3609 14.6608 58.5099C15.1625 58.6479 15.7281 58.4713 15.9772 58.1098C16.1978 57.7924 16.2013 57.4061 16.0982 57.0611C15.995 56.7162 15.7175 56.3077 15.2692 56.1532C14.6537 55.9379 14.024 56.2443 13.8567 56.7272C13.6789 57.235 14.0667 57.6931 14.4794 58.0573C14.6999 58.2533 15.1802 58.1015 15.1553 57.8393C15.1162 57.4254 15.0984 57.0142 15.0984 56.6003L14.5007 56.8652C14.5363 56.8845 14.5719 56.9121 14.6252 56.959C14.643 56.9756 14.643 56.9756 14.6288 56.959L14.6537 56.9866C14.6786 57.0142 14.6999 57.0418 14.7213 57.0721C14.7889 57.166 14.8209 57.2515 14.8529 57.3785C14.8636 57.4171 14.8707 57.4668 14.8743 57.5247C14.8778 57.6075 14.8778 57.6875 14.8743 57.7703C14.8636 57.9056 14.8423 58.0435 14.8209 58.1788L15.4827 58.0435C15.4613 58.0297 15.4435 58.0159 15.4222 58.0021C15.3439 57.947 15.4293 58.0159 15.3973 57.9801C15.383 57.9635 15.3688 57.9442 15.3546 57.9249C15.3226 57.8807 15.3724 57.9828 15.3403 57.8973C15.3332 57.878 15.3261 57.8559 15.319 57.8366C15.3119 57.8172 15.3119 57.7924 15.319 57.8255C15.319 57.8007 15.319 57.7731 15.319 57.7483C15.3226 57.6958 15.2977 57.8145 15.3261 57.7207C15.3724 57.5578 15.2621 57.3867 15.0486 57.3426C14.8494 57.3012 14.6074 57.395 14.5612 57.5578C14.4651 57.8918 14.5861 58.2533 14.9241 58.4796C15.0344 58.5541 15.166 58.5899 15.3083 58.5596C15.4293 58.5347 15.568 58.4464 15.5858 58.3443C15.6534 57.958 15.721 57.5716 15.6143 57.1825C15.5182 56.8376 15.2763 56.5395 14.9027 56.3353C14.6501 56.1973 14.305 56.3822 14.305 56.6003C14.305 57.0142 14.3228 57.4281 14.3619 57.8393L15.0379 57.6213C14.9099 57.5082 14.8102 57.4143 14.7106 57.2764C14.6644 57.2101 14.6501 57.1853 14.6252 57.1191C14.6181 57.097 14.611 57.0721 14.6039 57.0501C14.6039 57.0501 14.5932 56.9921 14.5968 57.0252C14.5968 57.0528 14.5968 57.0059 14.5968 57.0059C14.5968 56.9866 14.5968 56.9673 14.5968 56.948C14.5968 56.8928 14.5825 56.9673 14.6039 56.9176C14.6146 56.89 14.6217 56.8624 14.6359 56.8348C14.6146 56.8845 14.6537 56.8072 14.6644 56.7934C14.6715 56.7824 14.6822 56.7686 14.6928 56.7576C14.6715 56.7824 14.675 56.7713 14.6964 56.7548C14.7142 56.741 14.7747 56.6996 14.7213 56.73C14.7498 56.7134 14.7782 56.6996 14.8102 56.6886C14.7462 56.7106 14.8209 56.6886 14.8494 56.6886C14.764 56.6996 14.9419 56.7079 14.8529 56.6886C14.8778 56.6941 14.9525 56.7134 14.8921 56.6913C14.9241 56.7024 14.9561 56.7189 14.9846 56.7327C14.9312 56.7079 15.0024 56.7438 15.0166 56.7576C15.0344 56.7714 15.0522 56.7851 15.07 56.7989C15.0842 56.81 15.1055 56.8321 15.0806 56.8072C15.1304 56.8541 15.1696 56.9093 15.2051 56.9645C15.2123 56.9756 15.255 57.0445 15.2336 57.0032C15.255 57.039 15.2727 57.0777 15.287 57.1163C15.3083 57.1687 15.3261 57.2239 15.3403 57.2764C15.3439 57.2957 15.3581 57.3592 15.3475 57.304C15.3546 57.3398 15.3581 57.3785 15.3581 57.4171C15.3581 57.4723 15.3581 57.5275 15.3581 57.5854C15.3581 57.6462 15.3688 57.5551 15.3581 57.613C15.351 57.6434 15.3439 57.6737 15.3332 57.7041C15.3226 57.7345 15.3119 57.7621 15.2977 57.7896C15.3226 57.74 15.2977 57.7897 15.2834 57.809C15.2692 57.8283 15.2514 57.8531 15.2301 57.8724C15.2763 57.8255 15.2194 57.8752 15.198 57.8918C15.166 57.9166 15.2123 57.8862 15.2158 57.8835C15.198 57.8945 15.1802 57.9028 15.1625 57.9111C15.1411 57.9194 15.0735 57.9359 15.1269 57.9249C15.1091 57.9304 15.013 57.9442 15.0735 57.9387C15.0522 57.9387 15.0344 57.9387 15.013 57.9387C15.0059 57.9387 14.9312 57.9332 14.9668 57.9387C14.9241 57.9332 14.8743 57.9193 14.8102 57.8918C14.7747 57.8752 14.7391 57.8586 14.7035 57.8393C14.7106 57.8421 14.7355 57.8586 14.6964 57.8366C14.675 57.8228 14.6501 57.8062 14.6288 57.7924C14.4865 57.6903 14.4082 57.6103 14.3157 57.4751C14.2232 57.3398 14.1414 57.1936 14.1093 57.0363C14.0987 56.9838 14.0951 56.9011 14.1058 56.8348C14.1022 56.879 14.1129 56.8045 14.1165 56.7907C14.1271 56.7548 14.1414 56.7189 14.1592 56.683C14.1592 56.6775 14.1769 56.6472 14.1592 56.683C14.1663 56.6692 14.1769 56.6554 14.1876 56.6416C14.2054 56.614 14.2268 56.5865 14.2517 56.5589C14.2552 56.5533 14.305 56.5037 14.2801 56.5257C14.2588 56.5478 14.3015 56.5064 14.3015 56.5092C14.3335 56.4844 14.3691 56.4568 14.4046 56.4319C14.4118 56.4264 14.4402 56.4071 14.4046 56.4319C14.4224 56.4236 14.4367 56.4154 14.4545 56.4071C14.4722 56.3988 14.547 56.3657 14.5327 56.3712C14.5007 56.3822 14.5576 56.3629 14.5576 56.3629C14.5825 56.3574 14.6074 56.3491 14.6323 56.3464C14.6501 56.3436 14.6715 56.3408 14.6893 56.3353C14.7533 56.3243 14.6359 56.3353 14.6999 56.3353C14.7462 56.3326 14.7924 56.3353 14.8387 56.3353C14.8387 56.3353 14.9063 56.3381 14.8636 56.3353C14.8245 56.3326 14.8992 56.3408 14.9099 56.3408C14.9597 56.3491 15.013 56.3602 15.0593 56.374C15.102 56.3878 15.0593 56.374 15.0557 56.374C15.0806 56.3822 15.102 56.3933 15.1233 56.4016C15.1411 56.4098 15.1553 56.4181 15.1731 56.4264C15.2265 56.454 15.1375 56.4016 15.1874 56.4347C15.2229 56.4595 15.255 56.4843 15.287 56.5119C15.255 56.4843 15.3297 56.5644 15.3403 56.5782C15.351 56.592 15.3581 56.6058 15.3688 56.6196C15.3973 56.6637 15.3546 56.5837 15.3759 56.6306C15.4008 56.6858 15.4364 56.7907 15.44 56.8183C15.4328 56.7851 15.4435 56.8514 15.4435 56.8569C15.4435 56.879 15.4471 56.9011 15.4506 56.9204C15.4506 56.959 15.4506 56.9976 15.4506 57.0363C15.4506 57.1135 15.4435 57.1908 15.4364 57.2681C15.4328 57.3122 15.4257 57.3564 15.4186 57.4005C15.4257 57.3591 15.4044 57.4695 15.4044 57.4806L15.9879 57.2957C15.7957 57.1908 15.6143 57.0528 15.4542 56.9066C15.3154 56.7796 15.0344 56.7962 14.8921 56.9066C14.7284 57.0335 14.7533 57.2129 14.8921 57.3426V57.3371Z" fill="#ED976B"/>
<path d="M28.3084 63.6421C27.5897 63.5897 26.8639 63.7663 26.2982 64.1085C26.1559 64.194 26.0278 64.2961 25.9496 64.4231C25.8428 64.5997 25.8464 64.7873 25.9033 64.9722C25.9745 65.2123 26.0954 65.4607 26.2591 65.6704C26.4405 65.9022 26.6932 66.0844 27.0276 66.1754C27.3834 66.2693 27.7783 66.2086 28.102 66.0788C28.4258 65.9491 28.6855 65.7173 28.8812 65.4773C29.0769 65.2372 29.2477 64.9805 29.3615 64.7211C29.4896 64.4286 29.4362 64.125 29.1836 63.8877C28.9737 63.689 28.6606 63.5814 28.3369 63.5538C27.6538 63.4931 27.0632 63.907 26.7821 64.3541C26.6042 64.6356 26.4975 64.9419 26.558 65.2565C26.6113 65.5297 26.8319 65.7863 27.1486 65.9133C27.5008 66.054 27.8992 66.0292 28.2088 65.836C28.4507 65.6842 28.5823 65.4524 28.6748 65.2289C28.7282 65.0937 28.7709 64.9557 28.8172 64.8177C28.867 64.6659 28.9381 64.5086 28.9452 64.3513C28.9524 64.1802 28.8776 64.0009 28.682 63.9043C28.4507 63.7911 28.1696 63.827 27.9704 63.965C27.7107 64.1416 27.5968 64.4176 27.4901 64.6632C27.4688 64.7156 27.4438 64.768 27.4189 64.8177C27.4154 64.826 27.3691 64.9088 27.4083 64.8425C27.394 64.8674 27.3798 64.8895 27.3656 64.9143C27.3513 64.9391 27.3336 64.9584 27.3158 64.9805C27.298 65.0026 27.2553 65.0385 27.3015 64.9998C27.2802 65.0192 27.2553 65.0357 27.2339 65.055C27.2019 65.0771 27.2019 65.0771 27.2339 65.055C27.2161 65.0661 27.1948 65.0743 27.177 65.0826L27.7605 65.2675C27.7036 65.0881 27.6965 64.9143 27.7249 64.7239C27.7498 64.5583 27.5221 64.4176 27.33 64.4176C27.0952 64.4176 26.96 64.5583 26.9351 64.7239C26.8959 64.9612 26.9244 65.2013 26.9991 65.4331C27.0596 65.629 27.3656 65.7146 27.5826 65.618C28.006 65.4276 28.1483 65.0771 28.2977 64.7404C28.312 64.7046 28.3297 64.6714 28.3475 64.6356C28.3546 64.6218 28.3867 64.5666 28.3546 64.619C28.3653 64.6024 28.3724 64.5859 28.3831 64.5693C28.4045 64.5362 28.4258 64.5059 28.4507 64.4755C28.4614 64.4617 28.4756 64.4452 28.4898 64.4314C28.4507 64.47 28.4934 64.4314 28.4934 64.4314H28.4898C28.3511 64.47 28.2479 64.4452 28.1732 64.3624C28.1732 64.3624 28.1092 64.3016 28.1625 64.3513C28.1625 64.3486 28.1447 64.2768 28.1554 64.343C28.1554 64.3596 28.1447 64.401 28.159 64.3375C28.1305 64.4452 28.0914 64.5528 28.0522 64.6576C27.9918 64.8398 27.9419 65.0302 27.8459 65.2068C27.8743 65.1571 27.8174 65.2454 27.8067 65.262C27.7961 65.2758 27.7214 65.3614 27.7712 65.3144C27.7427 65.342 27.7107 65.3696 27.6751 65.3889C27.7391 65.3503 27.6751 65.3889 27.6573 65.3917C27.6324 65.4027 27.636 65.4 27.6715 65.3862L27.636 65.3945C27.5577 65.3889 27.6146 65.4083 27.6324 65.3945C27.6182 65.4027 27.5719 65.3945 27.6289 65.4C27.6039 65.4 27.5826 65.3917 27.5577 65.3862C27.4545 65.3669 27.5862 65.4027 27.5328 65.3779C27.5257 65.3751 27.4581 65.342 27.4937 65.3613C27.5292 65.3807 27.4652 65.342 27.4581 65.3393C27.4403 65.3255 27.4225 65.3117 27.4047 65.2951C27.3869 65.2786 27.3869 65.2786 27.4047 65.2951L27.3834 65.2703C27.3727 65.2537 27.3585 65.2344 27.3478 65.2178C27.3762 65.2703 27.3442 65.1958 27.3407 65.182C27.3229 65.1323 27.3264 65.1351 27.3264 65.0826C27.3264 64.986 27.3442 64.9088 27.3905 64.8011C27.4225 64.7211 27.4545 64.6687 27.5114 64.5914C27.5399 64.55 27.5755 64.5086 27.6075 64.47C27.6217 64.4534 27.6395 64.4341 27.6538 64.4176C27.6217 64.4479 27.6715 64.4038 27.6822 64.3927C27.8388 64.2575 27.9526 64.2023 28.1554 64.1609C28.0771 64.1775 28.1981 64.1609 28.2266 64.1609C28.2515 64.1609 28.2728 64.1609 28.2977 64.1637C28.2266 64.1499 28.2764 64.1637 28.2977 64.1637C28.344 64.1747 28.3902 64.183 28.4329 64.194C28.3653 64.1747 28.4222 64.1913 28.4329 64.1968C28.4614 64.2106 28.4934 64.2244 28.5219 64.2382C28.4578 64.2051 28.5574 64.2658 28.5717 64.2768C28.5859 64.2879 28.6215 64.3127 28.5717 64.2768C28.5823 64.2906 28.593 64.3072 28.6072 64.321C28.6144 64.3348 28.6464 64.3651 28.6072 64.321C28.6144 64.3375 28.6215 64.3541 28.625 64.3734C28.6286 64.3872 28.625 64.4314 28.625 64.4479C28.5823 64.6328 28.44 64.8122 28.3226 64.9805C28.1981 65.1599 28.0878 65.3006 27.9064 65.4331C27.8388 65.48 27.764 65.5214 27.6502 65.5628C27.5862 65.5849 27.6929 65.5518 27.6253 65.5711C27.5933 65.5794 27.5577 65.5876 27.5257 65.5959C27.4972 65.6014 27.4723 65.607 27.4438 65.6097C27.4972 65.6042 27.4261 65.6097 27.4047 65.6097C27.3763 65.6097 27.3513 65.6097 27.3229 65.6097C27.2553 65.6042 27.3691 65.6208 27.3051 65.607C27.2695 65.5987 27.2375 65.5932 27.2055 65.5849C27.2268 65.5904 27.2553 65.607 27.1948 65.5794C27.1735 65.5683 27.1521 65.56 27.1308 65.549C27.1201 65.5435 27.0738 65.5131 27.1201 65.5462C27.0774 65.5186 27.0383 65.4855 26.9991 65.4524C26.9529 65.411 27.0454 65.5104 26.9778 65.4331C26.96 65.411 26.9422 65.3917 26.9244 65.3696C26.8924 65.331 26.8639 65.2896 26.839 65.2482C26.7999 65.1847 26.7643 65.1102 26.7181 65.0054C26.6754 64.906 26.6256 64.7984 26.6362 64.7128C26.6398 64.6742 26.6362 64.699 26.6362 64.7073C26.6291 64.7294 26.6682 64.6604 26.6433 64.688C26.6825 64.6438 26.7501 64.6025 26.8034 64.5721C26.9813 64.4672 27.2339 64.3706 27.4616 64.321C27.7427 64.2575 27.974 64.2409 28.287 64.2658C28.5005 64.2823 28.682 64.114 28.682 63.9595C28.682 63.7801 28.5005 63.6669 28.287 63.6531L28.3084 63.6421Z" fill="#ED976B"/>
<path opacity="0.1" d="M58.7205 34.087V40.0615C58.7205 40.63 58.1299 41.0909 57.4041 41.0909H53.7183L53.5831 42.9453L51.2207 75.8732C51.146 76.9328 50.0253 77.7635 48.6697 77.7635H27.9207V33.0576H57.4041C58.1299 33.0576 58.7205 33.5185 58.7205 34.087Z" fill="black"/>
</svg>
