<svg width="554" height="554" viewBox="0 0 554 554" fill="none" xmlns="http://www.w3.org/2000/svg">
<circle cx="277" cy="277" r="275.258" stroke="black" stroke-width="3.48428"/>
<path d="M533.768 101.581C534.575 100.775 534.575 99.4663 533.768 98.6595C532.961 97.8526 531.653 97.8526 530.846 98.6595L533.768 101.581ZM491.215 138.29C490.408 139.097 490.408 140.406 491.215 141.212C492.022 142.019 493.33 142.019 494.137 141.212L491.215 138.29ZM141.63 493.72C142.436 492.913 142.436 491.605 141.63 490.798C140.823 489.991 139.515 489.991 138.708 490.798L141.63 493.72ZM494.137 141.212L533.768 101.581L530.846 98.6595L491.215 138.29L494.137 141.212ZM92.4037 542.946L141.63 493.72L138.708 490.798L89.4818 540.024L92.4037 542.946Z" fill="black"/>
<path fill-rule="evenodd" clip-rule="evenodd" d="M277 532.307C418.002 532.307 532.307 418.002 532.307 277C532.307 227.332 518.124 180.976 493.587 141.762L141.762 493.587C180.976 518.124 227.332 532.307 277 532.307ZM138.193 491.313C68.0744 445.805 21.6927 366.819 21.6927 277C21.6927 135.998 135.998 21.6929 277 21.6929C366.819 21.6929 445.804 68.0745 491.313 138.193L138.193 491.313Z" fill="black"/>
</svg>
