<svg width="925" height="1439" viewBox="0 0 925 1439" fill="none" xmlns="http://www.w3.org/2000/svg">
<g clip-path="url(#clip0_2_619)">
<path d="M719.94 1286.43C719.94 1286.43 719.94 1329.33 714.792 1339.63C714.792 1339.63 708.786 1350.2 717.366 1354.78C725.946 1359.36 737.958 1367.94 737.958 1367.94C737.958 1367.94 740.154 1379.95 760.506 1367.94C780.858 1355.93 796.301 1333.62 794.585 1328.47C792.869 1323.32 784.289 1270.13 784.289 1270.13L719.94 1286.43Z" fill="#F69586"/>
<path d="M144.228 1055.63C144.228 1055.63 103.045 1071.07 91.0327 1081.37C79.0208 1091.67 75.5889 1029.89 75.5889 1029.89C75.5889 1029.89 77.3048 1002.43 94.4647 999.002C111.624 995.57 149.376 993.854 149.376 993.854L144.228 1055.63Z" fill="#F57373"/>
<path d="M485.709 630.062C485.709 630.062 473.697 695.579 485.709 720.307C497.721 745.034 477.129 762.194 477.129 762.194C477.129 762.194 441.093 846.278 425.65 906.338C410.206 966.398 396.478 945.806 379.318 947.522C362.158 949.238 327.839 937.226 283.223 952.67C238.608 968.114 212.868 980.126 187.128 983.558C161.388 986.99 128.785 993.854 128.785 993.854C128.785 993.854 149.376 1035.04 139.081 1059.06C139.081 1059.06 303.815 1035.04 350.146 1035.04C396.478 1035.04 451.389 1036.75 451.389 1036.75C451.389 1036.75 477.455 1043.96 496.159 1011.19C514.863 978.41 602.396 858.29 616.124 823.97C629.851 789.65 654.716 698.788 654.716 698.788C654.716 698.788 612.692 571.719 485.709 630.062Z" fill="#006F66"/>
<path d="M502.869 628.346C502.869 628.346 478.845 686.69 521.744 743.318C564.644 799.946 602.705 847.204 606.84 863.043C610.976 878.882 653.875 920.066 671.035 935.51C688.195 950.954 715.65 992.137 705.355 1024.74C695.059 1057.35 697.839 1126.59 707.602 1164.9C717.366 1203.21 719.082 1299.3 719.082 1299.3C719.082 1299.3 749.97 1313.03 787.722 1294.15C787.722 1294.15 787.722 1077.94 803.166 1029.89C818.609 981.841 813.461 968.114 806.597 950.954C799.734 933.794 779.142 889.178 777.426 873.734C775.71 858.29 739.674 714.146 691.627 674.678C643.579 635.21 602.396 611.186 556.064 618.05C509.733 624.914 502.869 628.346 502.869 628.346Z" fill="#008278"/>
<path d="M642.086 108.348C642.086 108.348 667.603 168.442 653.875 187.318C653.875 187.318 713.934 247.378 708.786 262.822C708.786 262.822 743.106 213.058 751.686 211.342C760.266 209.626 796.301 199.33 796.301 199.33C796.301 199.33 751.497 108.502 701.819 106.735C652.159 104.95 642.086 108.348 642.086 108.348Z" fill="#F57373"/>
<path d="M816.893 518.523C816.893 518.523 811.745 535.683 822.041 537.399C832.337 539.115 839.201 544.263 839.201 544.263C839.201 544.263 851.539 547.695 859.106 544.263C866.674 540.831 874.43 532.148 874.43 532.148C874.43 532.148 883.833 509.943 870.106 501.363C856.378 492.783 830.638 487.635 830.638 487.635C830.638 487.635 818.626 506.511 816.91 518.523H816.893Z" fill="#F57373"/>
<path d="M722.514 460.179C722.514 460.179 739.674 461.895 755.118 475.623C770.562 489.351 796.301 491.067 796.301 491.067L823.757 492.783C823.757 492.783 839.201 492.783 840.917 508.227C842.633 523.671 839.201 532.251 827.189 533.967C815.177 535.683 777.426 535.683 768.846 537.399C760.266 539.115 707.74 540.831 699.674 537.399C691.609 533.967 671.035 511.659 677.899 494.499C684.763 477.339 676.183 455.031 722.514 460.179Z" fill="#F57373"/>
<path d="M818.609 511.659C818.609 511.659 808.313 501.363 813.461 487.635C818.609 473.907 822.041 472.191 822.041 472.191C822.041 472.191 828.905 463.611 842.633 470.475C856.361 477.339 854.645 479.055 852.929 484.203C851.213 489.351 848.604 489.419 841.329 488.527C834.053 487.635 836.558 486.691 834.447 489.728C832.337 492.765 834.053 494.499 827.189 503.079C820.325 511.659 818.609 511.659 818.609 511.659Z" fill="#F57373"/>
<path d="M837.485 482.487C837.485 482.487 851.779 476.326 854.078 472.534C856.361 468.759 871.805 468.759 871.805 468.759C871.805 468.759 874.722 468.244 877.553 473.649C880.384 479.055 875.236 482.487 878.668 485.919C878.668 485.919 887.248 492.783 885.532 496.215C883.816 499.647 882.1 508.227 883.816 511.659C885.532 515.091 882.1 520.239 882.1 520.239C882.1 520.239 878.668 523.671 878.668 532.251C878.668 540.83 872.028 540.625 861.629 539.869C851.23 539.114 849.497 537.399 846.065 532.251C842.633 527.103 844.349 523.671 844.349 523.671C844.349 523.671 837.485 524.786 837.485 518.231C837.485 511.676 834.053 513.375 834.053 506.511C834.053 499.647 830.621 496.215 832.337 491.067C834.053 485.919 832.337 484.203 837.485 482.487Z" fill="#F69586"/>
<path d="M693.343 17.4517C693.343 17.4517 748.254 2.00775 773.994 31.1797C799.733 60.3516 808.313 86.0916 810.029 106.684C811.745 127.275 810.029 182.187 804.881 192.483C799.733 202.779 796.301 204.495 787.722 202.779C779.142 201.063 725.946 163.311 713.934 146.151L712.218 120.411C712.218 120.411 710.502 130.707 674.467 132.423C638.431 134.139 636.715 103.252 636.715 103.252C636.715 103.252 626.419 65.4996 650.443 44.9077C674.467 24.3157 693.343 17.4517 693.343 17.4517Z" fill="#F69586"/>
<path d="M652.159 180.471C652.159 180.471 710.502 221.655 732.81 250.827C755.118 279.999 760.266 319.467 758.55 340.059C756.834 360.651 744.822 424.143 744.822 424.143C744.822 424.143 743.106 451.599 746.538 458.463C749.97 465.327 744.822 485.919 734.526 492.783C724.23 499.647 722.514 539.115 722.514 539.115C722.514 539.115 720.798 552.842 712.218 563.138C703.638 573.434 712.218 590.594 712.218 590.594C712.218 590.594 717.366 597.458 708.786 602.606C700.206 607.754 708.786 621.482 701.922 633.494C695.058 645.506 702.231 672.773 705.509 677.149C708.786 681.525 710.502 696.986 700.206 690.122L669.319 669.53C669.319 669.53 652.159 659.234 647.011 652.37C641.863 645.506 628.135 647.222 600.679 647.222C573.224 647.222 508.016 652.37 508.016 652.37C508.016 652.37 485.708 655.802 478.845 647.222C471.981 638.642 454.821 631.778 454.821 631.778C454.821 631.778 466.833 599.174 483.992 585.446C501.152 571.718 538.904 563.138 537.188 544.263C535.472 525.387 530.324 400.119 537.188 382.959C544.052 365.799 552.632 255.975 574.94 228.519C574.94 228.519 578.371 221.655 595.531 214.791C612.691 207.927 642.086 184.538 642.086 184.538C642.086 184.538 648.727 178.755 652.159 180.471Z" fill="#2685C3"/>
<path d="M701.064 136.713C702.66 132.938 716.903 49.4894 722.6 45.5769C722.6 45.5769 746.538 38.0437 763.697 34.6117C780.857 31.1797 782.573 24.7276 763.697 13.3677C744.822 2.00777 719.082 -3.14022 695.058 2.00777C671.034 7.15576 656.037 13.402 642.086 36.0188C628.135 58.6356 617.839 65.4996 624.703 89.5236C631.567 113.548 630.005 124.187 646.239 130.879L650.666 132.218" fill="#010101"/>
<path d="M642.086 118.747C642.086 118.747 659.726 157.872 656.809 167.876C653.892 177.88 699.348 129.832 699.348 129.832L642.086 116.362" fill="#010101"/>
<path d="M487.424 314.319C487.424 314.319 417.069 388.107 408.489 396.687C399.909 405.267 396.477 412.131 406.773 424.143C417.069 436.155 463.401 503.079 496.004 525.387C528.608 547.694 580.087 600.89 580.087 600.89C580.087 600.89 602.395 631.778 619.555 636.926C636.715 642.074 639.615 636.926 639.615 636.926C639.615 636.926 645.295 635.21 652.159 635.21C659.023 635.21 657.307 631.778 664.171 630.062C671.034 628.346 665.887 618.05 669.318 616.334C672.75 614.618 686.478 614.618 683.046 600.89C679.614 587.162 681.33 585.446 676.182 580.298C671.034 575.15 662.455 559.706 662.455 559.706C662.455 559.706 659.023 551.126 638.431 554.558C617.839 557.99 610.975 554.558 600.679 547.694C590.383 540.83 550.916 503.079 550.916 501.363C550.916 499.647 518.312 461.895 511.448 446.451C504.584 431.007 487.424 406.983 501.152 405.267C514.88 403.551 540.62 396.687 549.2 386.391L487.424 314.319Z" fill="#F69586"/>
<path d="M712.218 104.967C712.218 104.967 707.07 89.5235 688.194 96.3874C669.319 103.251 686.478 128.991 686.478 128.991C686.478 128.991 693.342 141.003 707.07 142.719C720.798 144.435 719.082 132.423 719.082 132.423L712.218 104.967Z" fill="#F69586"/>
<path d="M636.715 230.235C636.715 230.235 611.336 209.643 581.117 230.235C550.899 250.827 545.768 269.703 523.46 285.147C501.152 300.591 480.561 314.319 480.561 314.319C480.561 314.319 482.277 321.183 497.72 334.911C513.164 348.639 528.608 374.379 528.608 374.379C528.608 374.379 537.188 384.675 547.484 389.823C547.484 389.823 586.951 360.651 600.679 353.787C614.407 346.923 631.567 343.491 655.591 316.035C679.614 288.579 677.898 269.703 669.319 259.407C660.739 249.111 636.715 230.235 636.715 230.235Z" fill="#54A7DD"/>
<path d="M772.278 1357.64C772.278 1357.64 767.13 1343.92 775.71 1333.62C784.29 1323.32 791.909 1315.31 791.909 1315.31C791.909 1315.31 794.585 1307.88 801.449 1319.89C808.313 1331.9 828.905 1355.93 847.781 1366.22C866.657 1376.52 880.385 1385.1 880.385 1385.1C880.385 1385.1 882.101 1395.4 868.373 1395.4C854.645 1395.4 863.225 1402.26 830.621 1386.82C798.017 1371.37 772.278 1357.64 772.278 1357.64Z" fill="#CFCFCF"/>
<path d="M696.774 1383.38C696.774 1383.38 688.194 1381.67 684.762 1390.25C681.33 1398.83 684.762 1407.41 701.922 1414.27C719.082 1421.14 748.254 1424.57 768.845 1428C789.437 1431.43 813.461 1434.86 820.325 1436.58C827.189 1438.3 840.917 1440.01 849.497 1438.3C858.077 1436.58 864.94 1433.15 882.1 1429.72C899.26 1426.28 914.704 1419.42 918.136 1415.99C921.568 1412.56 919.852 1405.69 916.42 1405.69C912.988 1405.69 868.372 1422.85 847.781 1419.42C827.189 1415.99 749.97 1410.84 725.946 1400.54C701.922 1390.25 696.774 1383.38 696.774 1383.38Z" fill="#4D4D4D"/>
<path d="M727.662 1354.21C727.662 1354.21 737.958 1367.94 760.266 1359.36C782.573 1350.78 772.277 1349.06 794.585 1359.36C816.893 1369.66 851.213 1391.96 858.077 1391.96C864.94 1391.96 864.94 1393.68 871.804 1379.95C871.804 1379.95 890.68 1386.82 904.408 1388.53C918.136 1390.25 925 1391.96 925 1397.11C925 1402.26 925 1405.69 916.42 1409.12C907.84 1412.56 897.544 1415.99 897.544 1415.99C897.544 1415.99 887.248 1419.42 875.236 1419.42C863.224 1419.42 846.065 1424.57 846.065 1424.57C846.065 1424.57 836.764 1428 822.539 1424.57C808.313 1421.14 777.425 1412.56 748.254 1410.84C719.082 1409.12 701.922 1398.83 698.49 1395.4C695.058 1391.96 689.91 1388.53 693.342 1379.95C696.774 1371.37 700.206 1359.36 701.922 1350.78C703.638 1342.2 701.922 1342.2 705.354 1338.77C708.786 1335.34 714.998 1331.42 717.04 1331.66L715.633 1337.52C715.633 1337.52 712.218 1340.48 727.662 1354.21Z" fill="#9F9F9F"/>
<path d="M81.3546 1055.71C81.3546 1055.71 95.0825 1050.57 105.378 1059.15C115.674 1067.73 123.688 1075.35 123.688 1075.35C123.688 1075.35 131.118 1078.02 119.106 1084.89C107.094 1091.75 83.0706 1112.34 72.7747 1131.22C62.4788 1150.09 53.8989 1163.82 53.8989 1163.82C53.8989 1163.82 43.603 1165.54 43.603 1151.81C43.603 1138.08 36.7391 1146.66 52.183 1114.06C67.6268 1081.45 81.3546 1055.71 81.3546 1055.71Z" fill="#9F9F9F"/>
<path d="M55.6149 980.211C55.6149 980.211 57.3309 971.631 48.751 968.199C40.171 964.767 31.5911 968.199 24.7272 985.359C17.8633 1002.52 14.4313 1031.69 10.9994 1052.28C7.56739 1072.87 4.13542 1096.9 2.41944 1103.76C0.703459 1110.63 -1.01252 1124.35 0.703459 1132.93C2.41944 1141.51 5.8514 1148.38 9.28337 1165.54C12.7153 1182.7 19.5793 1198.14 23.0112 1201.57C26.4432 1205.01 33.3071 1203.29 33.3071 1199.86C33.3071 1196.43 16.1473 1151.81 19.5793 1131.22C23.0112 1110.63 28.1592 1033.41 38.4551 1009.38C48.751 985.359 55.6149 980.211 55.6149 980.211Z" fill="#4D4D4D"/>
<path d="M84.7868 1011.1C84.7868 1011.1 71.059 1021.4 79.6389 1043.7C88.2188 1066.01 89.9348 1055.72 79.6389 1078.02C69.343 1100.33 47.0352 1134.65 47.0352 1141.51C47.0352 1148.38 45.3192 1148.38 59.0471 1155.24C59.0471 1155.24 52.1832 1174.12 50.4672 1187.85C48.7512 1201.57 47.0352 1208.44 41.8873 1208.44C36.7393 1208.44 33.3074 1208.44 29.8754 1199.86C26.4434 1191.28 23.0115 1180.98 23.0115 1180.98C23.0115 1180.98 19.5795 1170.69 19.5795 1158.67C19.5795 1146.66 14.4316 1129.5 14.4316 1129.5C14.4316 1129.5 10.9996 1120.2 14.4316 1105.98C17.8635 1091.75 26.4434 1060.86 28.1594 1031.69C29.8754 1002.52 40.1713 985.359 43.6033 981.927C47.0352 978.495 50.4672 973.347 59.0471 976.779C67.627 980.211 79.6389 983.643 88.2188 985.359C96.7987 987.075 96.7987 985.359 100.231 988.791C103.663 992.223 109.291 994.368 109.051 996.41L100.471 998.126C100.471 998.126 98.5147 995.655 84.7868 1011.1Z" fill="#808080"/>
</g>
<defs>
<clipPath id="clip0_2_619">
<rect width="925" height="1439" fill="white"/>
</clipPath>
</defs>
</svg>
